<svg xmlns="http://www.w3.org/2000/svg" viewBox="0 0 143.12 168.89"><defs><style>.cls-1,.cls-2{fill:#fff;}.cls-1,.cls-3{fill-rule:evenodd;}.cls-3{fill:#ffa400;}</style></defs><title>Recurso 116</title><g id="Capa_2" data-name="Capa 2"><g id="Capa_1-2" data-name="Capa 1"><path class="cls-1" d="M4.5,155.28h1l3.86,10.27H8.12L7.19,163H2.67l-.93,2.52H.52ZM5,156.85H5l-1.87,5.06H6.78Z"/><path class="cls-1" d="M10.39,160.37q0-.47,0-.87c0-.27,0-.52,0-.74h.94c0,.18,0,.36,0,.55s0,.37,0,.56h0a2,2,0,0,1,.28-.48,2.46,2.46,0,0,1,.44-.41,2.25,2.25,0,0,1,.58-.29,2.17,2.17,0,0,1,.69-.11h.2a.83.83,0,0,1,.21.06l-.06,1.15a1.61,1.61,0,0,0-.54-.09,1.47,1.47,0,0,0-1.34.68,3.6,3.6,0,0,0-.41,1.85v3.31h-1Z"/><path class="cls-1" d="M20.65,168.84h-1v-4.3h0a3.09,3.09,0,0,1-.95.86,2.43,2.43,0,0,1-1.2.3,3,3,0,0,1-1.28-.26,3,3,0,0,1-1-.75,3.66,3.66,0,0,1-.64-1.13,4.47,4.47,0,0,1,0-2.83,3.45,3.45,0,0,1,.63-1.13,3,3,0,0,1,.95-.76,2.66,2.66,0,0,1,1.18-.28,2.46,2.46,0,0,1,1.41.4,2.37,2.37,0,0,1,.89,1h0v-1.21h1Zm-1-6.7h0a3.12,3.12,0,0,0-.15-1,2.21,2.21,0,0,0-.43-.8,2,2,0,0,0-.67-.54,2.11,2.11,0,0,0-1.75,0,2.22,2.22,0,0,0-.67.54,2.47,2.47,0,0,0-.43.8,3.22,3.22,0,0,0-.15,1,3.48,3.48,0,0,0,.15,1,2.67,2.67,0,0,0,.43.8,2.06,2.06,0,0,0,.68.53,2,2,0,0,0,1.75,0,2,2,0,0,0,.67-.54,2.28,2.28,0,0,0,.43-.8,3.43,3.43,0,0,0,.14-1"/><path class="cls-1" d="M27.71,163.91c0,.31,0,.6,0,.87s0,.52,0,.74h-1c0-.18,0-.36,0-.55s0-.37,0-.56h0a2,2,0,0,1-.29.48,2.16,2.16,0,0,1-.44.41,2.19,2.19,0,0,1-.57.29,2.26,2.26,0,0,1-.69.11,2.29,2.29,0,0,1-1-.2,1.87,1.87,0,0,1-.71-.56,2.48,2.48,0,0,1-.42-.88,5,5,0,0,1-.14-1.13v-4.19h1v4.08a2.33,2.33,0,0,0,.34,1.35,1.18,1.18,0,0,0,1,.49,1.8,1.8,0,0,0,.84-.19,1.58,1.58,0,0,0,.58-.54,2.49,2.49,0,0,0,.33-.83,4.93,4.93,0,0,0,.11-1.06v-3.31h1Z"/><path class="cls-1" d="M29.45,156.07a.88.88,0,0,1,.21-.58.66.66,0,0,1,1,0,.87.87,0,0,1,.22.58.84.84,0,0,1-.21.59.64.64,0,0,1-.52.24.69.69,0,0,1-.53-.23.92.92,0,0,1-.2-.6m.23,2.66h1v6.79h-1Z"/><path class="cls-1" d="M35.94,159.68H34.17v3.39c0,.23,0,.43,0,.62a1.47,1.47,0,0,0,.11.5.73.73,0,0,0,.27.33.92.92,0,0,0,.51.12,1.86,1.86,0,0,0,.45-.06,1.75,1.75,0,0,0,.43-.17l0,1a2,2,0,0,1-.57.19,3.19,3.19,0,0,1-.59.06,2,2,0,0,1-.86-.16,1.22,1.22,0,0,1-.5-.45,1.8,1.8,0,0,1-.24-.72,6.8,6.8,0,0,1-.06-1v-3.73H31.87v-1h1.3v-1.93h1v1.93h1.77Z"/><path class="cls-1" d="M42.52,164.27a3.06,3.06,0,0,1-1.17,1.09,3.32,3.32,0,0,1-1.48.32,2.76,2.76,0,0,1-1.27-.28,2.87,2.87,0,0,1-1-.76,3.49,3.49,0,0,1-.6-1.13,4.56,4.56,0,0,1-.21-1.4,4.18,4.18,0,0,1,.23-1.44,3.35,3.35,0,0,1,.63-1.13,3,3,0,0,1,1-.74,3,3,0,0,1,1.23-.26,2.88,2.88,0,0,1,1.15.23,2.59,2.59,0,0,1,.91.7,3.3,3.3,0,0,1,.58,1.12,4.94,4.94,0,0,1,.21,1.5v.36H37.9a2.58,2.58,0,0,0,.19.83,2.33,2.33,0,0,0,.42.7,2,2,0,0,0,.6.47,1.59,1.59,0,0,0,.75.17,2.08,2.08,0,0,0,1.1-.26,2.55,2.55,0,0,0,.81-.77Zm-.86-2.77h0a2.09,2.09,0,0,0-.5-1.4,1.65,1.65,0,0,0-1.3-.52,1.8,1.8,0,0,0-1.35.53,2.32,2.32,0,0,0-.61,1.39Z"/><path class="cls-1" d="M48.54,160.4a2.17,2.17,0,0,0-.69-.64,1.74,1.74,0,0,0-.82-.19,1.93,1.93,0,0,0-.88.2,1.73,1.73,0,0,0-.63.54,2.63,2.63,0,0,0-.38.81,3.81,3.81,0,0,0-.12,1,3.46,3.46,0,0,0,.14,1,2.65,2.65,0,0,0,.42.8,1.73,1.73,0,0,0,1.46.74,1.69,1.69,0,0,0,1.52-.84l.75.79a2.55,2.55,0,0,1-1,.83,2.91,2.91,0,0,1-1.24.27,3.05,3.05,0,0,1-1.26-.26,2.68,2.68,0,0,1-1-.74,3.55,3.55,0,0,1-.63-1.13,4.44,4.44,0,0,1-.23-1.44,4.32,4.32,0,0,1,.22-1.42,3.5,3.5,0,0,1,.63-1.14,3.1,3.1,0,0,1,1-.74,2.91,2.91,0,0,1,1.26-.27,3,3,0,0,1,1.26.25,2.84,2.84,0,0,1,1.05.82Z"/><path class="cls-1" d="M53.73,159.65H52v3.4c0,.22,0,.42,0,.61a1.48,1.48,0,0,0,.1.5.73.73,0,0,0,.27.33.92.92,0,0,0,.51.12,1.74,1.74,0,0,0,.45-.06,1.82,1.82,0,0,0,.44-.17l0,1a2.12,2.12,0,0,1-.57.19,3.21,3.21,0,0,1-.6.06,1.91,1.91,0,0,1-.86-.16,1.28,1.28,0,0,1-.5-.45,1.8,1.8,0,0,1-.23-.72,6.8,6.8,0,0,1-.06-1v-3.73h-1.3v-1H51v-1.93h1v1.93h1.76Z"/><path class="cls-1" d="M60.18,163.86q0,.46,0,.87c0,.27,0,.52,0,.74h-.94c0-.18,0-.36,0-.55s0-.37,0-.56h0a1.77,1.77,0,0,1-.28.47,2.19,2.19,0,0,1-.44.42,2.25,2.25,0,0,1-.58.29,2.17,2.17,0,0,1-.69.11,2.47,2.47,0,0,1-1-.2,2,2,0,0,1-.71-.57,2.35,2.35,0,0,1-.42-.87,4.49,4.49,0,0,1-.13-1.13v-4.19h1v4.07a2.38,2.38,0,0,0,.33,1.35,1.17,1.17,0,0,0,1,.5,2,2,0,0,0,.84-.19,1.63,1.63,0,0,0,.57-.54,2.58,2.58,0,0,0,.33-.83,4.93,4.93,0,0,0,.11-1.06v-3.31h1Z"/><path class="cls-1" d="M62.07,160.29q0-.47,0-.87c0-.27,0-.52,0-.74h1c0,.19,0,.37,0,.56s0,.37,0,.56h0a2.45,2.45,0,0,1,.29-.48,2.16,2.16,0,0,1,.44-.41,2.1,2.1,0,0,1,.58-.29,2.17,2.17,0,0,1,.69-.11h.2l.21.06-.06,1.15a1.61,1.61,0,0,0-.54-.09,1.46,1.46,0,0,0-1.34.68,3.57,3.57,0,0,0-.41,1.85v3.31h-1Z"/><path class="cls-1" d="M66.49,159.54a2.77,2.77,0,0,1,1.1-.79,3.4,3.4,0,0,1,1.28-.26,2.36,2.36,0,0,1,1.92.71,3.33,3.33,0,0,1,.6,2.16v2.92q0,.28,0,.6a4.54,4.54,0,0,0,.06.57h-1a3.92,3.92,0,0,1-.06-.52v-.5h0a2.6,2.6,0,0,1-.79.86,2,2,0,0,1-1.18.33,2.71,2.71,0,0,1-.86-.13,1.94,1.94,0,0,1-.71-.38,1.89,1.89,0,0,1-.48-.63,2,2,0,0,1-.18-.87,2.09,2.09,0,0,1,.38-1.32,2.44,2.44,0,0,1,1-.72,4.36,4.36,0,0,1,1.22-.29c.44,0,.85-.06,1.21-.06h.39V161a1.34,1.34,0,0,0-1.49-1.49,2.62,2.62,0,0,0-1,.18,2.3,2.3,0,0,0-.83.56Zm2.9,2.65h0a3.22,3.22,0,0,0-1.52.31,1,1,0,0,0-.56,1,1,1,0,0,0,.38.91,1.49,1.49,0,0,0,.94.26,1.67,1.67,0,0,0,.76-.16,1.48,1.48,0,0,0,.54-.45,1.77,1.77,0,0,0,.33-.64,2.9,2.9,0,0,0,.13-.79v-.44Z"/><path class="cls-1" d="M82.13,164.2A3.11,3.11,0,0,1,81,165.3a3.32,3.32,0,0,1-1.48.32,2.86,2.86,0,0,1-2.23-1.05,3.39,3.39,0,0,1-.6-1.13,4.5,4.5,0,0,1-.21-1.39,4.18,4.18,0,0,1,.23-1.44,3.4,3.4,0,0,1,.63-1.14,2.9,2.9,0,0,1,2.2-1,2.72,2.72,0,0,1,1.15.24,2.48,2.48,0,0,1,.91.7,3.25,3.25,0,0,1,.58,1.11,5,5,0,0,1,.21,1.51v.36H77.5a2.64,2.64,0,0,0,.19.83,2.55,2.55,0,0,0,.42.7,2.12,2.12,0,0,0,.6.47,1.72,1.72,0,0,0,.75.17,2.16,2.16,0,0,0,1.1-.26,2.67,2.67,0,0,0,.81-.77Zm-.87-2.77h0a2,2,0,0,0-.5-1.39,1.66,1.66,0,0,0-1.31-.52,1.82,1.82,0,0,0-1.34.52,2.35,2.35,0,0,0-.61,1.4Z"/><rect class="cls-2" x="87.62" y="155.15" width="1.07" height="10.28"/><path class="cls-1" d="M90.77,160.24q0-.47,0-.87c0-.27,0-.52,0-.74h1c0,.18,0,.37,0,.55s0,.37,0,.57h0a2,2,0,0,1,.29-.48,2,2,0,0,1,.44-.42,2.1,2.1,0,0,1,.58-.29,2.17,2.17,0,0,1,.69-.11,2.47,2.47,0,0,1,1,.2,2.08,2.08,0,0,1,.71.57,2.47,2.47,0,0,1,.41.88,4.35,4.35,0,0,1,.14,1.12v4.19H95v-4.08a2.41,2.41,0,0,0-.33-1.35,1.17,1.17,0,0,0-1-.49,1.74,1.74,0,0,0-.84.19,1.52,1.52,0,0,0-.57.53,2.58,2.58,0,0,0-.33.83,4.37,4.37,0,0,0-.11,1.06v3.31h-1Z"/><path class="cls-1" d="M103.86,165.1a4.11,4.11,0,0,1-.83,2.82,3,3,0,0,1-2.42,1,4.11,4.11,0,0,1-1.6-.29,3.7,3.7,0,0,1-1.35-1l.72-.93a3.52,3.52,0,0,0,1,.88,2.49,2.49,0,0,0,1.23.3,2.39,2.39,0,0,0,1.1-.23,1.82,1.82,0,0,0,.7-.61,2.55,2.55,0,0,0,.36-.88,5.71,5.71,0,0,0,.1-1v-.87h0a2.39,2.39,0,0,1-.93,1,2.55,2.55,0,0,1-1.18.3,3,3,0,0,1-1.29-.25,3.08,3.08,0,0,1-1-.73,3.29,3.29,0,0,1-.66-1.1,4.18,4.18,0,0,1-.23-1.39,4.42,4.42,0,0,1,.23-1.5,3.22,3.22,0,0,1,.64-1.12,2.8,2.8,0,0,1,1-.71,3.21,3.21,0,0,1,1.3-.25,2.55,2.55,0,0,1,.61.08,2,2,0,0,1,.6.25,2.28,2.28,0,0,1,.52.42,2.16,2.16,0,0,1,.38.58h0v-1.16h1ZM98.61,162h0a2.78,2.78,0,0,0,.17,1,2.58,2.58,0,0,0,.46.77,2,2,0,0,0,.67.51,1.8,1.8,0,0,0,.82.19,1.94,1.94,0,0,0,.91-.21,2,2,0,0,0,.67-.54,2.43,2.43,0,0,0,.41-.78,2.93,2.93,0,0,0,.14-.94,3.2,3.2,0,0,0-.15-1,2.52,2.52,0,0,0-.44-.79,1.91,1.91,0,0,0-.68-.51,2.05,2.05,0,0,0-.87-.18,1.9,1.9,0,0,0-.86.19,2,2,0,0,0-.67.54,2.65,2.65,0,0,0-.42.8,2.94,2.94,0,0,0-.16,1"/><path class="cls-1" d="M111.05,164.16a3.1,3.1,0,0,1-1.17,1.1,3.48,3.48,0,0,1-1.49.31,2.75,2.75,0,0,1-1.26-.28,2.87,2.87,0,0,1-1-.76,3.49,3.49,0,0,1-.6-1.13,4.56,4.56,0,0,1-.21-1.4,4.18,4.18,0,0,1,.23-1.44,3.35,3.35,0,0,1,.63-1.13,3,3,0,0,1,1-.74,3,3,0,0,1,1.23-.26,2.72,2.72,0,0,1,1.15.24,2.45,2.45,0,0,1,.91.69,3.39,3.39,0,0,1,.58,1.12,4.94,4.94,0,0,1,.21,1.5v.36h-4.84a2.58,2.58,0,0,0,.19.83,2.33,2.33,0,0,0,.42.7,1.82,1.82,0,0,0,.6.47,1.59,1.59,0,0,0,.75.17,2.08,2.08,0,0,0,1.1-.26,2.55,2.55,0,0,0,.81-.77Zm-.86-2.77h0a2.11,2.11,0,0,0-.5-1.4,1.71,1.71,0,0,0-1.31-.52A1.79,1.79,0,0,0,107,160a2.32,2.32,0,0,0-.61,1.39Z"/><path class="cls-1" d="M112.81,160.21c0-.31,0-.6,0-.87s0-.52,0-.74h.95c0,.19,0,.37,0,.56s0,.37,0,.56h0a2,2,0,0,1,.29-.48,2.16,2.16,0,0,1,.44-.41,2.19,2.19,0,0,1,.57-.29,2,2,0,0,1,.69-.11,2.26,2.26,0,0,1,1,.2,1.87,1.87,0,0,1,.71.56,2.4,2.4,0,0,1,.42.88,4.92,4.92,0,0,1,.14,1.13v4.19h-1V161.3a2.41,2.41,0,0,0-.34-1.35,1.15,1.15,0,0,0-1-.49,1.8,1.8,0,0,0-.84.19,1.58,1.58,0,0,0-.58.54,2.49,2.49,0,0,0-.33.83,4.93,4.93,0,0,0-.11,1.06v3.31h-1Z"/><path class="cls-1" d="M119.78,155.93a.86.86,0,0,1,.21-.58.64.64,0,0,1,.52-.25.65.65,0,0,1,.52.25.84.84,0,0,1,.21.58.88.88,0,0,1-.2.59.67.67,0,0,1-.53.23.64.64,0,0,1-.52-.23.84.84,0,0,1-.21-.59m.23,2.65h1v6.8h-1Z"/><path class="cls-1" d="M128.35,164.13a3.17,3.17,0,0,1-1.17,1.1,3.33,3.33,0,0,1-1.49.31,2.72,2.72,0,0,1-1.26-.28,2.87,2.87,0,0,1-1-.76,3.49,3.49,0,0,1-.6-1.13,4.54,4.54,0,0,1-.21-1.39,4.46,4.46,0,0,1,.22-1.45,3.54,3.54,0,0,1,.64-1.13,2.92,2.92,0,0,1,1-.74,3,3,0,0,1,1.23-.26,2.72,2.72,0,0,1,1.15.24,2.65,2.65,0,0,1,.91.69,3.39,3.39,0,0,1,.58,1.12,4.94,4.94,0,0,1,.21,1.5v.36h-4.84a2.7,2.7,0,0,0,.19.84,2.38,2.38,0,0,0,.41.69,2,2,0,0,0,.61.47,1.6,1.6,0,0,0,.75.18,2.09,2.09,0,0,0,1.1-.27,2.55,2.55,0,0,0,.81-.77Zm-.86-2.77h0A2.06,2.06,0,0,0,127,160a1.64,1.64,0,0,0-1.31-.52,1.79,1.79,0,0,0-1.34.52,2.32,2.32,0,0,0-.61,1.39Z"/><path class="cls-1" d="M130.11,160.18c0-.31,0-.6,0-.87s0-.52,0-.74H131c0,.18,0,.36,0,.55s0,.37,0,.56h0a2,2,0,0,1,.29-.48,2.16,2.16,0,0,1,.44-.41,2.19,2.19,0,0,1,.57-.29,2.22,2.22,0,0,1,.69-.11h.21l.2.06-.06,1.15a1.61,1.61,0,0,0-.54-.09,1.44,1.44,0,0,0-1.33.68,3.5,3.5,0,0,0-.42,1.85v3.31h-1Z"/><path class="cls-1" d="M135.64,154.84h1.41l-1.82,2.09h-.91Zm-.94,3.72h1v6.79h-1Z"/><path class="cls-1" d="M137.61,159.43a2.83,2.83,0,0,1,1.09-.8,3.4,3.4,0,0,1,1.29-.25,2.33,2.33,0,0,1,1.92.71,3.34,3.34,0,0,1,.59,2.16v2.92c0,.19,0,.39,0,.6s0,.4.07.57h-1a2,2,0,0,1-.06-.51c0-.19,0-.36,0-.5h0a2.48,2.48,0,0,1-.79.85,2,2,0,0,1-1.18.34,2.73,2.73,0,0,1-.87-.13,2.06,2.06,0,0,1-.7-.38,1.89,1.89,0,0,1-.48-.63,2,2,0,0,1-.18-.87,2,2,0,0,1,.38-1.33,2.41,2.41,0,0,1,1-.71,4.43,4.43,0,0,1,1.23-.29c.44,0,.84-.06,1.21-.06h.38v-.2a1.48,1.48,0,0,0-.39-1.12,1.52,1.52,0,0,0-1.09-.38,2.65,2.65,0,0,0-1,.19,2.15,2.15,0,0,0-.82.56Zm2.9,2.65h0a3.17,3.17,0,0,0-1.53.31,1.22,1.22,0,0,0-.18,1.91,1.65,1.65,0,0,0,.94.26,1.52,1.52,0,0,0,.76-.17,1.7,1.7,0,0,0,.55-.44,2.09,2.09,0,0,0,.33-.65,2.84,2.84,0,0,0,.12-.79v-.43Z"/><polygon class="cls-3" points="100.74 27.99 88.96 39.52 94 44.67 100.53 38.27 107.21 45.36 94.38 57.8 99.39 62.97 117.32 45.58 100.74 27.99"/><polygon class="cls-3" points="81.98 66.33 84.02 68.45 70.2 81.72 61.67 72.84 75.07 59.59 77.09 61.6 82.18 56.51 75.1 49.43 56.68 67.64 51.94 62.7 65.66 49.35 58.66 42.05 53.46 47.04 55.51 49.18 46.95 57.51 35.99 46.1 54.87 28.08 66.71 39.93 74.41 32.23 69.32 27.14 66.71 29.74 60 23.03 73.38 10.18 85.8 23.11 78.97 29.68 83.96 34.87 95.98 23.32 73.59 0 52.13 20.61 52.2 20.68 25.8 45.88 70 91.9 94.2 68.66 87.18 61.34 81.98 66.33"/><path class="cls-1" d="M26.22,131.77c0,7.76-5.4,12.48-12.51,12.48-8,0-13.71-5.88-13.71-13.17a13.17,13.17,0,0,1,13.31-13.24,13,13,0,0,1,11.1,5.81l-4.93,2.82a7.3,7.3,0,0,0-6.21-3,7.3,7.3,0,0,0-7.47,7.62c0,4.31,3.05,7.47,8,7.47,3.37,0,5.59-1.49,6.49-3.92H13.49v-5.08H26.22Z"/><polygon class="cls-1" points="45.08 138.15 45.08 143.74 29.12 143.74 29.12 118.35 44.9 118.35 44.9 123.94 34.93 123.94 34.93 128.14 43.99 128.14 43.99 133.66 34.93 133.66 34.93 138.15 45.08 138.15"/><polygon class="cls-1" points="67.93 118.35 67.93 143.74 63.58 143.74 53.79 129.96 53.79 143.74 47.98 143.74 47.98 118.35 52.34 118.35 62.13 132.13 62.13 118.35 67.93 118.35"/><path class="cls-1" d="M86.79,139.75H77.36l-1.27,4H69.74l8.64-25.39h7.4l8.63,25.39H88.06Zm-1.74-5.44h0l-3-9.32-3,9.32Z"/><path class="cls-1" d="M104.78,135.4H102v8.34h-5.8V118.35h10.16a8.68,8.68,0,0,1,8.7,8.71,8.39,8.39,0,0,1-4.68,7.36l5.41,9.32h-6.24ZM102,130.32h4.36a3.29,3.29,0,0,0,0-6.53H102Z"/><path class="cls-1" d="M140.21,139.35l2.54,2.68-4.17,3.7-2.72-2.86a13.56,13.56,0,0,1-6,1.38,13.15,13.15,0,1,1,10.3-4.9m-8.52-.94h0L128,134.53l4.17-3.7,4.06,4.31a8.32,8.32,0,0,0,1.05-4.1,7.4,7.4,0,1,0-7.4,7.55,9.42,9.42,0,0,0,1.78-.18"/></g></g></svg>